<svg viewBox="0 0 299 367.03" xmlns:xlink="http://www.w3.org/1999/xlink" xmlns="http://www.w3.org/2000/svg"><defs><style>.cls-1{fill:#9ec000;}.cls-1,.cls-10,.cls-2,.cls-3,.cls-4,.cls-5,.cls-6,.cls-7,.cls-8,.cls-9{fill-rule:evenodd;}.cls-2{fill:url(#linear-gradient);}.cls-3{fill:#7cbc01;}.cls-4{fill:#580101;}.cls-5{fill:#480101;}.cls-6{fill:#3f0000;}.cls-7{fill:#2d0000;}.cls-8{fill:#160000;}.cls-11,.cls-9{fill:#fff;}.cls-10{opacity:0.2;}.cls-12{fill:#353231;}</style><linearGradient gradientUnits="userSpaceOnUse" y2="112.28" x2="149.5" y1="367.03" x1="149.5" id="linear-gradient"><stop stop-color="#2b032b" offset="0"></stop><stop stop-color="#751deb" offset="1"></stop></linearGradient></defs><g data-name="图层 2" id="图层_2"><g data-name="Pre-Made Monsters" id="Pre-Made_Monsters"><path d="M166.35,54.63l-.14,0a29.8,29.8,0,1,0-31.07,1.13c20.11,15.91,7.52,51,9.5,90.29.23,4.47,1,8.21,1,11.39,0,8.77,12.59,5.66,13,3.65a26.62,26.62,0,0,0,.34-4.44c-.28-16.07-4.74-70.17-4.74-76.47C154.26,61.22,166.35,54.63,166.35,54.63Z" class="cls-1"></path><path d="M241.3,88.06l-.12-.07A28.62,28.62,0,1,0,217,70.46c5.79,23.93-24.48,43-46.24,73.91-2.48,3.51-4.1,6.8-6,9.21-5.19,6.63,6.17,11.73,7.68,10.45a26.76,26.76,0,0,0,2.88-3.15C184.65,148.56,213.3,105,217,100.24,228.26,85.89,241.3,88.06,241.3,88.06Z" class="cls-1"></path><path d="M282.6,116.74a19.42,19.42,0,0,0-36.83,7.42v0c-3.53,16.36-27.67,19-50.13,31.5-2.55,1.41-4.52,2.95-6.38,3.86-5.13,2.52.3,9,1.6,8.66a18.92,18.92,0,0,0,2.69-1.08c9.33-4.77,39.72-22.91,43.41-24.72,11.1-5.45,18.43-.26,18.43-.26l0-.09a19.42,19.42,0,0,0,27.27-25.31Z" class="cls-1"></path><path d="M104.88,159.54c-1.86-.91-3.82-2.45-6.37-3.86-22.46-12.46-46.61-15.14-50.14-31.5v0a19.43,19.43,0,1,0-9.56,17.89l-.06.09s7.33-5.19,18.44.26c3.68,1.81,34.08,19.95,43.4,24.72a18.51,18.51,0,0,0,2.7,1.08C104.58,168.53,110,162.06,104.88,159.54Z" class="cls-1"></path><path d="M132.07,141.7c-21.76-30.91-52-50-46.24-73.91A28.62,28.62,0,1,0,61.67,85.32l-.12.07s13-2.17,24.27,12.18c3.73,4.77,32.38,48.32,41.67,60.64a27,27,0,0,0,2.88,3.16c1.51,1.27,12.87-3.82,7.68-10.46C136.16,148.51,134.55,145.22,132.07,141.7Z" class="cls-1"></path><path d="M252.3,329.66a5.16,5.16,0,0,1-4-8.44,126.64,126.64,0,0,0,29.16-70.65C284,173.63,220,108,142.71,112.5c-67,3.88-120.16,59.32-120.16,127.15a126.54,126.54,0,0,0,17,63.56,17.67,17.67,0,0,1-15.39,26.45H18.72a18.68,18.68,0,1,0,0,37.36H252.3a18.68,18.68,0,1,0,0-37.36ZM290.5,350h-7a8.5,8.5,0,0,0,0,17h7a8.5,8.5,0,0,0,0-17Z" class="cls-2"></path><path d="M60.16,256.39c3.23-29.41,21.68-84.61,90.13-83.49,71.08,1.17,85.68,59.7,89.43,87.12.73,5.31.65,14-9.76,12.45-25.46-3.65-93.8-14.23-159.17-.47C59.36,274.41,59.2,265.11,60.16,256.39Z" class="cls-3"></path><path d="M70.68,265.61s-1.2-84.2,80.2-83,79,83,79,83S147,252.51,70.68,265.61Z" class="cls-4"></path><path d="M217.08,264c-25.06-2.85-79.47-7.28-133,0,2.69-19.71,14.58-60.95,66.94-60.14C203.12,204.66,214.58,244.66,217.08,264Z" class="cls-5"></path><path d="M100.07,261.63c2.44-15.34,12.09-44.27,50.11-43.68,38.2.59,47.35,29.2,49.53,44.12C175.14,259.92,138.24,258.15,100.07,261.63Z" class="cls-6"></path><path d="M150.14,231.16c32.13.4,37.83,21,38.83,29.27-20.23-1.61-48.66-2.73-78.16-.23C112,251.63,118.18,230.77,150.14,231.16Z" class="cls-7"></path><path d="M150.72,241.7c18.12.22,21.34,11.69,21.9,16.29a280.52,280.52,0,0,0-44.08-.12C129.21,253.1,132.69,241.48,150.72,241.7Z" class="cls-8"></path><path d="M111,252.12a12.26,12.26,0,0,1,6.4,1.81,12.26,12.26,0,0,1,21-.9,12.25,12.25,0,0,1,21.72,2.41,12.25,12.25,0,0,1,18.63,2.22,12.25,12.25,0,0,1,22.35,4.78c-24.88-2.22-62.94-4.11-102.19-.39A12.26,12.26,0,0,1,111,252.12Zm108.93-15.59a12.26,12.26,0,0,1-11.34-16.94,14.25,14.25,0,0,1-19.12-13.43,15.07,15.07,0,0,1,.18-2.14,14.27,14.27,0,0,1-21.32-11.92,12.25,12.25,0,0,1-20.8-5.53,12.24,12.24,0,0,1-18.41,7.48A12.25,12.25,0,0,1,109,200.84a12.23,12.23,0,0,1-11.49,16.5,13.31,13.31,0,0,1-1.69-.12,9.82,9.82,0,0,1,.06,1.09,12.26,12.26,0,0,1-12.27,12.26,12.11,12.11,0,0,1-5.71-1.42c8.92-22.53,28.77-47,72.94-46.34,47.79.73,66.71,29.2,74.18,52.59A12.3,12.3,0,0,1,219.92,236.53Z" class="cls-9"></path><path d="M224.67,235.19c0,.14,0,.21,0,.21s-23.6-52.72-76.28-50.52c-40.75,1.7-63.46,31.29-70.17,41.62,9.12-21.69,29-44.74,72.13-44.09C198.9,183.14,217.53,212.07,224.67,235.19Z" class="cls-10"></path><path d="M236.63,278.91c-7.43,3.65-12.52-1.22-12.52-1.22s14.13,3,19.65-10.71C243.76,267,244.06,275.27,236.63,278.91Zm-7.69-5.71c-2.06-.29-73.91-8.4-156.66-1.14,0,0-3.62.71-1.57-1,0,0,64-17.63,161.1.86A2.75,2.75,0,0,1,228.94,273.2Zm-74.22-88.43c-82.43-1.86-83.9,80.77-83.9,80.77-1.57-9.61.47-89.06,83.71-86s75,86.18,75,86.18S222,186.29,154.72,184.77ZM70.83,278.13h0v0l-.45.19c-.28.12-.69.28-1.16.44a26.14,26.14,0,0,1-3.13.84,7.5,7.5,0,0,1-1.46.14,6.21,6.21,0,0,1-.73-.07l-.38-.07-.2-.05-.2-.05a22.62,22.62,0,0,1-4.41-1.93c-3-3.43-1.64-9.86-1.35-12.13.27,6.77,1.4,9.66,4.87,11.48a14.14,14.14,0,0,0,5.63,1.3,17.57,17.57,0,0,0,2.2-.07c.27,0,.48-.05.62-.05ZM57.37,265.47l0-.83C57.44,264.65,57.43,265,57.37,265.47Z" class="cls-10"></path><path d="M245,173.56a13.86,13.86,0,1,1-13.86-13.86A13.87,13.87,0,0,1,245,173.56Z" class="cls-11"></path><path d="M236.59,173.32a5.47,5.47,0,1,1-5.47-5.47A5.47,5.47,0,0,1,236.59,173.32Z" class="cls-12"></path><path d="M237,170.16a2.72,2.72,0,1,1-2.72-2.72A2.72,2.72,0,0,1,237,170.16Z" class="cls-11"></path><circle r="13.86" cy="173.56" cx="64.34" class="cls-11"></circle><path d="M69.81,173.32a5.47,5.47,0,1,1-5.47-5.47A5.47,5.47,0,0,1,69.81,173.32Z" class="cls-12"></path><path d="M70.22,170.16a2.72,2.72,0,1,1-2.72-2.72A2.72,2.72,0,0,1,70.22,170.16Z" class="cls-11"></path></g></g></svg>